HIERARCHY
ROOT Pelvis
{
	OFFSET 0.000000 0.000000 0.000000
	CHANNELS 6 Xposition Yposition Zposition Xrotation Yrotation Zrotation
	JOINT LeftUpLeg_virtual
	{
		OFFSET 0.000000 0.000000 0.000000
		CHANNELS 3 Xrotation Yrotation Zrotation
		JOINT LeftUpLeg
		{
			OFFSET 18.735201 -5.666702 -4.541200
			CHANNELS 3 Xrotation Yrotation Zrotation
			JOINT LeftLeg
			{
				OFFSET -0.021200 -31.938179 0.493100
				CHANNELS 3 Xrotation Yrotation Zrotation
				JOINT LeftFoot
				{
					OFFSET 0.021200 -31.938179 -4.336299
					CHANNELS 3 Xrotation Yrotation Zrotation
					JOINT LeftToeBase
					{
						OFFSET 0.943001 -26.722000 15.023500
						CHANNELS 3 Xrotation Yrotation Zrotation
						End Site
						{
							OFFSET 0 0 0
						}
					}
				}
			}
		}
	}
	JOINT RightUpLeg_virtual
	{
		OFFSET 0.000000 0.000000 0.000000
		CHANNELS 3 Xrotation Yrotation Zrotation
		JOINT RightUpLeg
		{
			OFFSET -18.735201 -5.666702 -4.541200
			CHANNELS 3 Xrotation Yrotation Zrotation
			JOINT RightLeg
			{
				OFFSET 0.018946 -31.938133 0.493100
				CHANNELS 3 Xrotation Yrotation Zrotation
				JOINT RightFoot
				{
					OFFSET -0.018946 -31.938126 -4.336299
					CHANNELS 3 Xrotation Yrotation Zrotation
					JOINT RightToeBase
					{
						OFFSET -0.943001 -26.722004 15.023500
						CHANNELS 3 Xrotation Yrotation Zrotation
						End Site
						{
							OFFSET 0 0 0
						}
					}
				}
			}
		}
	}
	JOINT Hips_virtual
	{
		OFFSET 0.000000 0.000000 0.000000
		CHANNELS 3 Xrotation Yrotation Zrotation
		JOINT Hips
		{
			OFFSET -0.000000 -0.000000 -0.000000
			CHANNELS 3 Xrotation Yrotation Zrotation
			JOINT Spine
			{
				OFFSET 0.000000 10.199997 -0.299500
				CHANNELS 3 Xrotation Yrotation Zrotation
				JOINT Spine1
				{
					OFFSET 0.000000 11.900002 -1.516600
					CHANNELS 3 Xrotation Yrotation Zrotation
					JOINT Spine2
					{
						OFFSET 0.000000 13.600006 -2.842500
						CHANNELS 3 Xrotation Yrotation Zrotation
						JOINT Neck_virtual
						{
							OFFSET 0.000000 0.000000 0.000000
							CHANNELS 3 Xrotation Yrotation Zrotation
							JOINT Neck
							{
								OFFSET 0.000000 9.624100 -2.890100
								CHANNELS 3 Xrotation Yrotation Zrotation
								JOINT Head
								{
									OFFSET 0.000000 14.068802 -1.351900
									CHANNELS 3 Xrotation Yrotation Zrotation
									End Site
									{
										OFFSET 0 0 0
									}
								}
							}
						}
						JOINT LeftShoulder_virtual
						{
							OFFSET 0.000000 0.000000 0.000000
							CHANNELS 3 Xrotation Yrotation Zrotation
							JOINT LeftShoulder
							{
								OFFSET 15.263000 10.923401 -0.547700
								CHANNELS 3 Xrotation Yrotation Zrotation
								JOINT LeftArm
								{
									OFFSET 25.438599 -2.830597 -13.032500
									CHANNELS 3 Xrotation Yrotation Zrotation
									JOINT LeftForeArm
									{
										OFFSET 29.960503 0.000000 0.000000
										CHANNELS 3 Xrotation Yrotation Zrotation
										JOINT LeftHand
										{
											OFFSET 27.849251 0.000000 0.000000
											CHANNELS 3 Xrotation Yrotation Zrotation
											End Site
											{
												OFFSET 0 0 0
											}
										}
									}
								}
							}
						}
						JOINT RightShoulder_virtual
						{
							OFFSET 0.000000 0.000000 0.000000
							CHANNELS 3 Xrotation Yrotation Zrotation
							JOINT RightShoulder
							{
								OFFSET -15.263000 10.923401 -0.547700
								CHANNELS 3 Xrotation Yrotation Zrotation
								JOINT RightArm
								{
									OFFSET -25.438599 -2.830597 -13.032500
									CHANNELS 3 Xrotation Yrotation Zrotation
									JOINT RightForeArm
									{
										OFFSET -29.960503 0.000000 0.000000
										CHANNELS 3 Xrotation Yrotation Zrotation
										JOINT RightHand
										{
											OFFSET -27.849251 0.000000 0.000000
											CHANNELS 3 Xrotation Yrotation Zrotation
											End Site
											{
												OFFSET 0 0 0
											}
										}
									}
								}
							}
						}
					}
				}
			}
		}
	}
}
MOTION
Frames: 14
Frame Time: 0.03333333
1.908013 93.109558 2.101206 0.000000 0.000000 0.000000 4.520996 -11.605966 -1.934812 -36.067924 8.316750 14.400378 54.423487 -1.112107 -1.855229 2.455185 -0.907235 -8.859594 0.000000 0.000000 0.000000 4.660810 3.145322 5.347779 -23.372726 -5.100638 -8.560700 30.535105 1.746422 -4.454302 -17.807850 0.103661 4.706782 0.000000 0.000000 0.000000 0.653918 -1.531649 0.482117 3.192885 8.713925 -1.542037 7.115620 -2.299013 1.665844 2.815713 -1.052195 0.491412 0.000000 0.000000 0.000000 2.710117 -0.786255 0.681391 -0.711544 -0.400869 0.193923 0.000000 0.000000 0.000000 2.982499 -1.489211 -0.749652 0.015098 -12.357832 -9.973645 3.854727 -5.857003 -49.149522 4.460150 -34.017361 -2.240739 0.000000 0.000000 0.000000 3.822715 -1.265483 2.104122 1.598619 1.440662 13.394447 1.613341 8.535403 46.121177 4.595124 47.877082 -0.042658 0.000000 0.000000 0.000000 
2.804198 93.141174 2.704632 0.000000 0.000000 0.000000 3.647782 -11.042211 -1.857400 -37.393582 8.233980 14.750196 54.205088 -1.224075 -1.796487 2.132992 -1.040795 -8.906892 0.000000 0.000000 0.000000 4.804350 3.738389 5.458216 -23.070207 -5.007506 -8.331817 29.850269 2.209056 -5.188051 -18.528227 0.920179 3.684785 0.000000 0.000000 0.000000 -0.286469 -2.526747 0.068399 3.807823 8.845372 -0.758076 6.992003 -2.689285 1.621083 2.805537 -0.962817 0.838265 0.000000 0.000000 0.000000 2.664698 -0.793150 0.538286 -0.711401 -0.342643 0.203039 0.000000 0.000000 0.000000 2.204559 -1.677426 -0.942163 0.179023 -12.718079 -11.197678 5.340387 -4.987116 -50.268246 5.362434 -32.569839 -2.385087 0.000000 0.000000 0.000000 3.500869 -1.082745 2.083914 1.629170 1.644326 13.943590 3.342732 10.015145 44.601487 5.539027 50.480398 -0.909854 0.000000 0.000000 0.000000 
2.658236 93.419861 3.366638 0.000000 0.000000 0.000000 4.636858 -9.767434 -1.317139 -35.971905 8.533110 15.210440 54.120879 -0.835590 -1.778630 2.511684 -0.657535 -8.639800 0.000000 0.000000 0.000000 5.128657 4.080563 5.528790 -22.537603 -4.955642 -8.205102 29.693182 2.413045 -5.474540 -18.710986 1.283983 3.277095 0.000000 0.000000 0.000000 0.948477 -1.683785 0.648530 1.301620 10.170225 -1.985918 8.265081 -2.150807 0.880288 2.525224 -0.660314 0.958455 0.000000 0.000000 0.000000 3.104014 -0.576548 0.504669 -0.643385 -0.210131 0.172851 0.000000 0.000000 0.000000 2.022993 -1.131289 -1.071114 -0.000521 -12.872513 -12.193021 6.443078 -3.789396 -49.812136 5.860820 -29.532020 -2.151918 0.000000 0.000000 0.000000 3.408370 -0.690391 1.846291 1.808426 1.551656 13.276058 3.769188 10.837356 44.464467 5.647794 51.570363 -1.392340 0.000000 0.000000 0.000000 
2.939698 93.384842 3.938068 0.000000 0.000000 0.000000 4.669402 -9.458421 -0.317822 -36.324650 8.250266 16.444824 54.272775 -0.326434 -1.803378 2.521571 -0.112131 -8.314779 0.000000 0.000000 0.000000 5.775152 4.262151 5.878322 -21.459677 -5.066331 -7.682598 29.405102 2.601996 -5.741608 -19.156365 1.563104 2.961989 0.000000 0.000000 0.000000 0.313787 0.311529 0.009554 3.137291 9.951531 -1.949885 7.794540 -1.575938 1.186335 3.011630 0.090593 0.545226 0.000000 0.000000 0.000000 3.196844 -0.204300 0.303675 -0.620421 -0.076527 0.088150 0.000000 0.000000 0.000000 2.573263 -0.979309 -1.339892 0.021386 -11.894710 -12.332532 6.014218 -2.971555 -50.185204 5.340195 -29.184879 -2.424017 0.000000 0.000000 0.000000 3.534880 -0.147766 1.744153 1.472054 2.340400 14.206817 4.890719 11.995340 43.401495 6.705968 52.833685 -2.116423 0.000000 0.000000 0.000000 
4.503505 93.134918 6.030230 0.000000 0.000000 0.000000 4.168061 -9.631534 0.525964 -36.548240 7.708574 17.151532 52.922590 0.354545 -1.822463 1.708853 0.649151 -7.842120 0.000000 0.000000 0.000000 5.982611 4.784943 5.819225 -20.968218 -4.947129 -7.565421 29.022850 2.972982 -5.458662 -19.568267 1.726979 3.649629 0.000000 0.000000 0.000000 1.897145 2.033239 0.007506 1.778940 8.862310 -0.203077 8.646646 -0.302073 0.372032 2.611836 0.605721 0.595856 0.000000 0.000000 0.000000 3.810121 0.231797 0.018831 -0.615943 0.237580 0.006259 0.000000 0.000000 0.000000 2.973920 -0.729611 -1.453319 0.136183 -11.020961 -13.032806 5.018185 -2.871500 -49.866907 4.753848 -29.853305 -2.607507 0.000000 0.000000 0.000000 3.262114 0.454326 1.630610 1.335525 4.419008 13.344582 5.115389 12.665285 42.843229 6.612940 56.356765 -2.197757 0.000000 0.000000 0.000000 
5.807428 93.228317 7.608372 0.000000 0.000000 0.000000 4.014654 -8.783435 0.044968 -36.592424 8.035383 16.717428 52.388657 1.052943 -2.019301 1.354860 1.490522 -7.637441 0.000000 0.000000 0.000000 6.388419 5.436785 5.659763 -20.479877 -4.788835 -7.689628 28.118583 3.298180 -5.346142 -20.584935 1.842099 4.055285 0.000000 0.000000 0.000000 0.038616 -0.139425 0.017842 0.776546 8.766347 -1.078444 7.828939 0.124542 0.252714 3.330404 1.394723 0.485382 0.000000 0.000000 0.000000 3.774569 0.830895 0.039145 -0.324129 0.351682 0.064673 0.000000 0.000000 0.000000 2.752311 -0.051177 -1.594153 0.386816 -9.928418 -12.461707 3.990096 -2.058213 -50.645798 4.697239 -30.907583 -2.619239 0.000000 0.000000 0.000000 3.357159 0.991228 1.301610 1.286246 4.896950 12.493969 4.503658 15.766337 42.555265 8.114460 56.803296 -3.196459 0.000000 0.000000 0.000000 
6.542792 93.143860 9.529030 0.000000 0.000000 0.000000 3.623361 -7.767719 0.296349 -36.771969 8.031585 16.974893 50.641806 1.665205 -2.545303 0.095737 2.450192 -8.049928 0.000000 0.000000 0.000000 6.859712 5.686645 5.160914 -19.646040 -4.640532 -8.049796 28.030611 3.874968 -4.884887 -20.666730 2.140295 5.130835 0.000000 0.000000 0.000000 0.557807 2.076367 0.016591 0.846580 8.181918 0.491079 7.878867 1.662600 0.191280 3.926088 1.431452 0.352158 0.000000 0.000000 0.000000 4.358374 1.175243 -0.138384 -0.268395 0.447888 -0.000166 0.000000 0.000000 0.000000 2.776943 0.442726 -1.790691 0.194531 -10.054627 -12.817573 3.993305 0.159022 -50.680232 3.776271 -29.194192 -3.188921 0.000000 0.000000 0.000000 3.590528 1.612812 1.193326 1.313613 5.342241 12.802128 4.092044 16.582139 41.563439 7.983337 57.900606 -3.366164 0.000000 0.000000 0.000000 
6.774956 93.721954 9.351244 0.000000 0.000000 0.000000 3.596774 -6.798702 0.992328 -36.858409 7.960804 17.802676 50.000516 2.548226 -2.874122 -0.479828 3.578244 -7.938665 0.000000 0.000000 0.000000 6.748007 4.245271 4.663301 -19.927234 -4.938048 -8.738567 28.006538 4.062958 -4.748459 -20.897220 2.225089 5.492744 0.000000 0.000000 0.000000 0.796644 1.281881 -0.435813 2.152652 9.652025 -0.847226 7.890722 2.904965 0.423891 3.273344 2.168813 0.100356 0.000000 0.000000 0.000000 4.481430 1.518560 -0.371073 -0.285644 0.518796 0.045021 0.000000 0.000000 0.000000 2.812711 0.791877 -2.029855 0.107843 -8.591815 -13.037025 3.320657 1.872518 -51.592947 2.840975 -29.651542 -3.352740 0.000000 0.000000 0.000000 3.794580 2.327090 0.847452 0.545729 6.556558 12.896115 3.681833 16.401762 41.743838 8.113554 60.495764 -3.358891 0.000000 0.000000 0.000000 
7.991564 92.912544 11.320866 0.000000 0.000000 0.000000 3.784116 -6.828575 1.571282 -36.456285 7.757367 18.308020 49.113677 2.512776 -3.168922 -1.313356 3.724698 -8.434349 0.000000 0.000000 0.000000 7.060690 4.161040 4.234669 -19.467687 -4.915151 -9.173199 28.196703 4.869641 -4.398279 -20.981511 2.765609 6.614179 0.000000 0.000000 0.000000 1.662375 2.492412 -0.308088 1.267323 7.697341 -1.859541 8.009310 4.116678 0.244534 3.494424 2.897596 0.201737 0.000000 0.000000 0.000000 4.349673 2.146295 -0.513730 -0.424021 0.681011 0.020592 0.000000 0.000000 0.000000 2.711022 1.542201 -2.316961 0.112955 -7.896984 -13.307124 2.165906 3.908212 -50.608034 2.210350 -27.805528 -3.218395 0.000000 0.000000 0.000000 3.728458 2.977381 0.727040 0.529373 7.941267 12.718287 3.757457 18.163742 41.778826 8.422417 59.885336 -3.223125 0.000000 0.000000 0.000000 
8.779977 92.518143 11.941364 0.000000 0.000000 0.000000 3.632936 -6.574048 2.010438 -36.455715 7.579387 18.707803 47.142037 2.733620 -3.417069 -2.876533 4.141591 -8.697517 0.000000 0.000000 0.000000 7.605492 3.314265 3.899201 -18.804706 -5.163985 -9.609729 29.082631 5.501442 -3.907655 -20.541331 3.082151 7.912154 0.000000 0.000000 0.000000 1.985504 3.632636 -0.164212 0.708812 6.003846 -1.909603 7.759382 5.204387 0.317917 3.407059 3.434679 0.188596 0.000000 0.000000 0.000000 4.567162 2.507803 -0.573503 -0.403884 0.770076 0.010397 0.000000 0.000000 0.000000 2.823811 2.127503 -2.441305 0.284622 -6.664114 -13.735761 1.685539 5.222276 -50.279444 1.463146 -28.098488 -3.234775 0.000000 0.000000 0.000000 3.969405 3.667609 0.593746 0.272757 8.698057 12.404866 2.183077 17.986851 42.540249 7.902590 60.775078 -2.707207 0.000000 0.000000 0.000000 
10.020296 92.159622 13.710547 0.000000 0.000000 0.000000 4.169684 -7.025248 2.393829 -35.582164 7.441616 18.933756 45.976968 2.685005 -3.674480 -3.867426 4.272807 -9.144149 0.000000 0.000000 0.000000 8.364432 3.167034 3.267235 -17.802400 -5.188477 -10.296357 28.305991 6.161305 -3.736059 -21.317666 3.512582 8.551612 0.000000 0.000000 0.000000 2.171140 5.182128 -0.358827 0.043893 3.988023 -1.910803 8.209670 6.482261 0.247911 3.552353 4.106972 0.266387 0.000000 0.000000 0.000000 4.820329 3.079426 -0.680502 -0.414036 0.965367 0.078416 0.000000 0.000000 0.000000 3.156606 2.697801 -2.697580 0.310883 -5.751277 -14.052117 0.919723 5.948386 -50.757417 1.231599 -28.859912 -3.104805 0.000000 0.000000 0.000000 3.932936 4.498181 0.423722 -0.026839 10.127153 13.213739 0.863517 18.646930 42.069727 6.953043 61.777442 -2.350093 0.000000 0.000000 0.000000 
10.769571 91.832947 15.114000 0.000000 0.000000 0.000000 5.100275 -7.469976 3.033772 -34.476616 7.345372 19.511528 45.696172 2.427349 -4.091508 -4.236689 4.221548 -9.947972 0.000000 0.000000 0.000000 8.959984 3.483751 2.575154 -16.966557 -5.063557 -10.979880 28.245822 6.775482 -3.382863 -21.481143 3.855772 9.508025 0.000000 0.000000 0.000000 2.434671 5.431483 -0.359951 -0.342752 4.024337 -2.696987 8.639943 7.788325 0.479510 3.758895 4.701198 0.310646 0.000000 0.000000 0.000000 5.220543 3.736573 -0.833403 -0.447273 1.160789 0.092623 0.000000 0.000000 0.000000 3.360920 3.473586 -2.783758 0.233548 -4.758506 -13.934106 0.594686 7.300699 -50.639405 0.218371 -28.805250 -3.038050 0.000000 0.000000 0.000000 4.308041 5.299067 0.213722 -0.471550 11.529968 13.309983 -1.116805 19.397903 42.343515 6.208961 62.528264 -1.856453 0.000000 0.000000 0.000000 
12.044767 91.250511 16.195688 0.000000 0.000000 0.000000 5.324481 -7.829750 3.398082 -34.168428 7.176415 19.817901 45.000749 1.997056 -4.597502 -4.908523 4.057772 -11.010400 0.000000 0.000000 0.000000 8.985794 2.941609 2.097543 -16.816646 -5.111866 -11.503376 28.037998 7.029357 -3.264699 -21.633250 4.019695 9.844140 0.000000 0.000000 0.000000 2.471709 6.778243 -0.599531 -0.600806 1.823522 -3.043407 8.741241 9.414222 0.407430 3.889642 5.406411 0.225990 0.000000 0.000000 0.000000 5.250767 4.458677 -0.893260 -0.429537 1.378113 0.184724 0.000000 0.000000 0.000000 3.695163 4.139902 -2.980197 0.358057 -4.386064 -13.736028 -0.153572 8.000389 -50.787907 0.013747 -28.825304 -2.819319 0.000000 0.000000 0.000000 4.490544 6.071778 -0.030211 -0.458075 12.981013 13.388661 -2.166640 20.065931 41.543041 6.099016 61.744193 -1.973307 0.000000 0.000000 0.000000 
13.077131 90.477936 17.876694 0.000000 0.000000 0.000000 5.748775 -8.382070 3.759786 -33.661194 7.021175 20.095036 44.981208 1.180871 -5.017421 -4.978810 3.442828 -12.210659 0.000000 0.000000 0.000000 9.604963 2.716826 1.644287 -15.961099 -5.188516 -12.009128 28.500863 7.269210 -3.164578 -21.263376 4.238986 10.203690 0.000000 0.000000 0.000000 2.841529 6.312090 -0.793715 -1.708473 1.228819 -3.223293 9.023719 10.734169 0.548206 4.073063 5.886085 0.237210 0.000000 0.000000 0.000000 5.536374 4.923723 -1.097679 -0.471381 1.507930 0.172278 0.000000 0.000000 0.000000 4.064794 4.632263 -3.308314 0.340632 -4.099585 -13.910952 -0.816242 7.699156 -51.163339 -0.433527 -29.643697 -2.971043 0.000000 0.000000 0.000000 4.954660 6.849327 -0.235946 -0.550152 14.400752 13.553127 -2.865276 20.365109 40.237423 5.758959 61.840895 -2.169570 0.000000 0.000000 0.000000 
